<svg fill="#000000" xmlns="http://www.w3.org/2000/svg"  viewBox="0 0 16 16" width="64px" height="64px"><path d="M 7.5 1 C 3.917969 1 1 3.917969 1 7.5 C 1 11.082031 3.917969 14 7.5 14 C 11.082031 14 14 11.082031 14 7.5 C 14 3.917969 11.082031 1 7.5 1 Z M 7.5 2 C 10.542969 2 13 4.457031 13 7.5 C 13 10.542969 10.542969 13 7.5 13 C 4.457031 13 2 10.542969 2 7.5 C 2 4.457031 4.457031 2 7.5 2 Z M 5.5 5 C 4.125 5 3 6.125 3 7.5 C 3 8.875 4.125 10 5.5 10 C 6.875 10 8 8.875 8 7.5 L 8 7 L 6 7 L 6 8 L 6.796875 8 C 6.578125 8.554688 6.136719 9 5.5 9 C 4.664063 9 4 8.335938 4 7.5 C 4 6.664063 4.664063 6 5.5 6 C 5.882813 6 6.222656 6.140625 6.488281 6.371094 L 7.148438 5.621094 C 6.707031 5.234375 6.128906 5 5.5 5 Z M 10 6 L 10 7 L 9 7 L 9 8 L 10 8 L 10 9 L 11 9 L 11 8 L 12 8 L 12 7 L 11 7 L 11 6 Z"/></svg>