<?xml version="1.0" encoding="UTF-8"?>
<svg xmlns="http://www.w3.org/2000/svg" xmlns:xlink="http://www.w3.org/1999/xlink" viewBox="0 0 64 64" width="64px" height="64px">
<g id="surface43031446">
<path style=" stroke:none;fill-rule:nonzero;fill:rgb(100%,100%,100%);fill-opacity:1;" d="M 30 4 C 15.640625 4 4 15.640625 4 30 C 4 41.015625 10.859375 50.421875 20.53125 54.21875 C 20.296875 52.15625 20.09375 49 20.609375 46.75 C 21.09375 44.734375 23.65625 33.828125 23.65625 33.828125 C 23.65625 33.828125 22.890625 32.265625 22.890625 29.96875 C 22.890625 26.359375 24.984375 23.65625 27.59375 23.65625 C 29.8125 23.65625 30.875 25.328125 30.875 27.3125 C 30.875 29.546875 29.453125 32.890625 28.734375 35.96875 C 28.109375 38.5625 30.03125 40.671875 32.578125 40.671875 C 37.203125 40.671875 40.75 35.796875 40.75 28.765625 C 40.75 22.546875 36.28125 18.1875 29.890625 18.1875 C 22.5 18.1875 18.15625 23.734375 18.15625 29.46875 C 18.15625 31.703125 19.015625 34.109375 20.09375 35.40625 C 20.296875 35.671875 20.328125 35.890625 20.265625 36.15625 C 20.078125 36.96875 19.625 38.75 19.546875 39.109375 C 19.4375 39.578125 19.171875 39.6875 18.671875 39.453125 C 15.421875 37.9375 13.390625 33.1875 13.390625 29.375 C 13.390625 21.171875 19.359375 13.640625 30.578125 13.640625 C 39.59375 13.640625 46.609375 20.0625 46.609375 28.65625 C 46.609375 37.609375 40.953125 44.828125 33.109375 44.828125 C 30.46875 44.828125 28 43.453125 27.15625 41.84375 C 27.15625 41.84375 25.84375 46.8125 25.53125 48.03125 C 24.9375 50.28125 23.359375 53.109375 22.296875 54.84375 C 24.734375 55.59375 27.3125 56 30 56 C 44.359375 56 56 44.359375 56 30 C 56 15.640625 44.359375 4 30 4 Z M 30 4 "/>
</g>
</svg>
